HIERARCHY
ROOT Hips
{
	OFFSET -0.001795 -0.223333 0.028219
	CHANNELS 6 Xposition Yposition Zposition Zrotation Yrotation Xrotation 
	JOINT LeftUpLeg
	{
		OFFSET 0.069520 -0.091406 -0.006815
		CHANNELS 3 Zrotation Yrotation Xrotation
		JOINT LeftLeg
		{
			OFFSET 0.034277 -0.375199 -0.004496
			CHANNELS 3 Zrotation Yrotation Xrotation
			JOINT LeftFoot
			{
				OFFSET -0.013596 -0.397961 -0.043693
				CHANNELS 3 Zrotation Yrotation Xrotation
				JOINT LeftToe
				{
					OFFSET 0.026358 -0.055791 0.119288
					CHANNELS 3 Zrotation Yrotation Xrotation
					End Site
					{
						OFFSET 0.000000 0.000000 0.000000
					}
				}
			}
		}
	}
	JOINT RightUpLeg
	{
		OFFSET -0.067670 -0.090522 -0.004320
		CHANNELS 3 Zrotation Yrotation Xrotation
		JOINT RightLeg
		{
			OFFSET -0.038290 -0.382569 -0.008850
			CHANNELS 3 Zrotation Yrotation Xrotation
			JOINT RightFoot
			{
				OFFSET 0.015774 -0.398415 -0.042312
				CHANNELS 3 Zrotation Yrotation Xrotation
				JOINT RightToe
				{
					OFFSET -0.025372 -0.048144 0.123348
					CHANNELS 3 Zrotation Yrotation Xrotation
					End Site
					{
						OFFSET 0.000000 0.000000 0.000000
					}
				}
			}
		}
	}
	JOINT Spine
	{
		OFFSET -0.002533 0.108963 -0.026696
		CHANNELS 3 Zrotation Yrotation Xrotation
		JOINT Spine1
		{
			OFFSET 0.005487 0.135180 0.001092
			CHANNELS 3 Zrotation Yrotation Xrotation
			JOINT Spine2
			{
				OFFSET 0.001457 0.052922 0.025425
				CHANNELS 3 Zrotation Yrotation Xrotation
				JOINT Neck
				{
					OFFSET -0.002778 0.213870 -0.042857
					CHANNELS 3 Zrotation Yrotation Xrotation
					JOINT Head
					{
						OFFSET 0.005152 0.064970 0.051349
						CHANNELS 3 Zrotation Yrotation Xrotation
						End Site
						{
							OFFSET 0.000000 0.000000 0.000000
						}
					}
				}
				JOINT LeftShoulder
				{
					OFFSET 0.078845 0.121749 -0.034090
					CHANNELS 3 Zrotation Yrotation Xrotation
					JOINT LeftArm
					{
						OFFSET 0.090977 0.030469 -0.008868
						CHANNELS 3 Zrotation Yrotation Xrotation
						JOINT LeftForeArm
						{
							OFFSET 0.259612 -0.012772 -0.027456
							CHANNELS 3 Zrotation Yrotation Xrotation
							JOINT LeftHand
							{
								OFFSET 0.249234 0.008986 -0.001171
								CHANNELS 3 Zrotation Yrotation Xrotation
								End Site
								{
									OFFSET 0.000000 0.000000 0.000000
								}
							}
						}
					}
				}
				JOINT RightShoulder
				{
					OFFSET -0.081759 0.118833 -0.038615
					CHANNELS 3 Zrotation Yrotation Xrotation
					JOINT RightArm
					{
						OFFSET -0.096012 0.032551 -0.009143
						CHANNELS 3 Zrotation Yrotation Xrotation
						JOINT RightForeArm
						{
							OFFSET -0.253742 -0.013329 -0.021401
							CHANNELS 3 Zrotation Yrotation Xrotation
							JOINT RightHand
							{
								OFFSET -0.255298 0.007772 -0.005559
								CHANNELS 3 Zrotation Yrotation Xrotation
								End Site
								{
									OFFSET 0.000000 0.000000 0.000000
								}
							}
						}
					}
				}
			}
		}
	}
}
MOTION
Frames: 10
Frame Time: 0.050000
-0.029680 0.941465 -0.004811 -1.570132 -7.240884 7.089739 4.233168 -0.719650 -13.429624 -1.483987 0.188444 -0.471349 -13.061276 -20.697780 8.852069 0.000000 0.000000 0.000000 -4.373110 0.496538 -4.136587 1.443388 -0.190753 -2.488951 -14.047697 -30.250822 9.982845 0.000000 0.000000 0.000000 -12.034659 1.754309 15.926872 -10.000317 5.968310 11.099362 -7.394844 -1.022727 -2.376322 -5.979554 4.455483 -9.715519 0.000000 0.000000 0.000000 -27.788921 -36.611637 22.506429 -24.748958 -30.810692 2.715340 -4.120304 -47.449653 3.852659 0.000000 0.000000 0.000000 -4.018287 34.405337 11.675948 37.629404 -3.687018 -4.043344 42.694134 60.919006 27.049357 0.000000 0.000000 0.000000 
-0.029267 0.941664 -0.004672 -1.590832 -6.405588 7.068747 3.857729 -0.772019 -13.379862 -1.038752 0.134439 -0.464903 -13.562200 -20.990929 9.623580 0.000000 0.000000 0.000000 -4.232883 0.493118 -4.222088 1.469180 -0.186749 -2.140070 -14.282552 -30.636940 10.231243 0.000000 0.000000 0.000000 -12.158820 1.761994 16.154866 -9.452590 5.589807 11.121788 -7.826064 -0.010135 -2.341538 -5.678987 4.338659 -10.000164 0.000000 0.000000 0.000000 -27.865957 -37.245093 22.403276 -25.092951 -31.567512 3.032615 -4.410688 -46.248377 3.807623 0.000000 0.000000 0.000000 -4.077154 33.736097 11.524431 38.534255 -4.086382 -4.270152 42.200456 60.082657 26.664780 0.000000 0.000000 0.000000 
-0.028810 0.942143 -0.004684 -1.497896 -5.223194 7.115679 3.400430 -0.833921 -13.280633 -0.811369 0.113467 -0.742161 -14.251077 -21.683009 10.278004 0.000000 0.000000 0.000000 -4.050882 0.481676 -4.202890 1.195557 -0.163261 -1.862683 -14.498053 -31.002412 10.440810 0.000000 0.000000 0.000000 -12.088234 1.737914 16.616399 -9.319591 5.413743 10.856538 -8.032479 0.726038 -2.027609 -5.411376 4.241754 -9.942417 0.000000 0.000000 0.000000 -28.014215 -37.759415 22.326845 -25.855349 -33.070309 3.569039 -4.475410 -44.090605 3.582011 0.000000 0.000000 0.000000 -4.113519 33.105645 11.365755 39.314967 -4.549783 -4.509884 41.627763 59.077122 26.079854 0.000000 0.000000 0.000000 
-0.028374 0.942522 -0.004816 -1.496495 -4.129128 7.278741 3.177301 -0.888010 -13.541894 -0.278906 0.059809 -0.915674 -15.090670 -22.237838 11.409678 0.000000 0.000000 0.000000 -3.927844 0.487594 -4.389240 1.048691 -0.155771 -1.896152 -14.729643 -31.316626 11.028368 0.000000 0.000000 0.000000 -12.234841 1.740391 16.795991 -8.790596 5.074303 11.319272 -8.429736 1.814524 -2.121620 -5.223212 4.200224 -9.671095 0.000000 0.000000 0.000000 -28.475672 -38.273135 22.160854 -26.069301 -33.982081 3.951180 -4.931590 -43.489285 3.638299 0.000000 0.000000 0.000000 -4.630592 32.901099 11.280140 40.057618 -4.468723 -4.550850 40.277948 58.313286 25.234640 0.000000 0.000000 0.000000 
-0.027953 0.943107 -0.004989 -1.506547 -3.487250 7.481953 3.015933 -0.931053 -13.830068 -0.186703 0.045679 -0.779742 -15.577326 -22.766009 11.788663 0.000000 0.000000 0.000000 -3.714179 0.477180 -4.303577 0.972100 -0.156118 -2.057564 -14.847710 -31.502206 11.171895 0.000000 0.000000 0.000000 -11.882411 1.691692 17.324697 -8.855715 5.032688 10.884488 -8.795877 2.624278 -1.730951 -4.564705 3.836278 -9.265915 0.000000 0.000000 0.000000 -28.718588 -38.577885 21.992288 -26.917556 -34.670883 4.370360 -5.357882 -42.842277 3.690807 0.000000 0.000000 0.000000 -5.292223 32.831832 11.152037 40.620830 -3.897864 -4.438468 39.003437 57.881523 24.490756 0.000000 0.000000 0.000000 
-0.027594 0.943222 -0.005180 -1.432739 -2.456450 7.756289 2.612367 -0.996248 -13.989852 0.177461 0.027302 -1.339298 -16.704898 -23.443305 13.300199 0.000000 0.000000 0.000000 -3.565485 0.469356 -4.258672 0.821025 -0.156205 -2.368472 -15.414071 -32.332899 11.733206 0.000000 0.000000 0.000000 -11.720089 1.642972 17.628249 -8.593378 4.817688 10.876558 -9.158088 3.872201 -1.353127 -3.681696 3.367696 -9.218468 0.000000 0.000000 0.000000 -29.144831 -39.276126 21.900965 -27.616765 -34.614430 4.669479 -5.768676 -43.705570 3.837459 0.000000 0.000000 0.000000 -5.924087 32.919334 11.112362 41.359769 -3.556593 -4.378656 38.508688 57.771729 24.497809 0.000000 0.000000 0.000000 
-0.027293 0.943271 -0.005332 -1.306442 -1.486632 7.980071 2.367825 -1.053709 -14.274849 0.340352 0.016017 -1.444273 -17.315883 -23.976216 13.872168 0.000000 0.000000 0.000000 -3.434966 0.467713 -4.295132 0.507540 -0.135257 -2.422342 -15.816500 -32.913090 12.152614 0.000000 0.000000 0.000000 -11.293302 1.531023 17.757136 -8.504729 4.673306 10.409207 -9.431611 5.077665 -0.692467 -2.715432 2.818080 -8.800974 0.000000 0.000000 0.000000 -30.007266 -39.348844 21.503385 -28.724421 -33.653863 4.855165 -6.623568 -44.399615 4.142531 0.000000 0.000000 0.000000 -6.062089 33.190011 11.247758 41.295686 -2.852268 -4.134194 38.050668 58.266531 24.779576 0.000000 0.000000 0.000000 
-0.027230 0.943370 -0.005569 -1.183975 -0.736692 8.031986 2.118962 -1.093708 -14.352470 0.590770 0.006717 -1.794710 -18.339130 -24.416491 15.351003 0.000000 0.000000 0.000000 -3.571274 0.475354 -4.434492 0.512128 -0.135006 -2.383285 -16.262071 -33.500485 12.721730 0.000000 0.000000 0.000000 -10.951348 1.454177 18.180186 -8.438485 4.549237 9.717762 -9.726436 6.437060 0.141661 -1.354932 2.096916 -9.293098 0.000000 0.000000 0.000000 -29.234817 -39.690438 20.781086 -30.384950 -33.043827 5.180080 -6.648974 -45.663502 4.120382 0.000000 0.000000 0.000000 -6.196474 33.083355 11.237534 41.299500 -1.956010 -3.831150 37.576698 58.893594 25.130566 0.000000 0.000000 0.000000 
-0.027268 0.943705 -0.005849 -1.040574 -0.192780 8.034949 1.977109 -1.107568 -14.247715 0.581569 0.020618 -2.109817 -18.664056 -24.413257 15.955186 0.000000 0.000000 0.000000 -3.651055 0.458702 -4.227025 0.339083 -0.127043 -2.532457 -16.504747 -33.739643 13.311898 0.000000 0.000000 0.000000 -10.529141 1.351052 18.304046 -8.360763 4.464467 9.467254 -9.733957 7.405632 0.606476 -0.544843 1.637843 -9.175195 0.000000 0.000000 0.000000 -29.310435 -39.962899 20.481740 -31.369964 -31.520422 5.116928 -6.972383 -47.186864 4.279505 0.000000 0.000000 0.000000 -6.225641 33.385608 11.389359 41.465107 -1.130379 -3.559613 35.986853 60.017901 24.903984 0.000000 0.000000 0.000000 
-0.027327 0.943789 -0.006266 -0.955195 0.298309 8.269736 1.758181 -1.144983 -14.383110 0.635985 0.038275 -2.658570 -19.098754 -24.190784 17.024910 0.000000 0.000000 0.000000 -3.556587 0.472119 -4.441570 0.051352 -0.107399 -2.612554 -16.745287 -33.955010 13.953761 0.000000 0.000000 0.000000 -10.066651 1.238475 18.178073 -8.131756 4.289508 9.168919 -9.956936 8.226375 0.784654 0.489004 1.057515 -9.358554 0.000000 0.000000 0.000000 -29.605122 -39.975480 20.076928 -31.664705 -29.884635 4.891770 -8.746906 -48.549189 5.092511 0.000000 0.000000 0.000000 -5.398094 33.679784 11.853866 41.261981 -0.804432 -3.439043 33.678974 60.669819 23.900171 0.000000 0.000000 0.000000 
